<mxfile host="app.diagrams.net" modified="2022-01-14T11:42:33.697Z" agent="5.0 (Windows NT 10.0; Win64; x64) AppleWebKit/537.36 (KHTML, like Gecko) Chrome/96.0.4664.110 Whale/3.12.129.46 Safari/537.36" etag="tvVUV-1--7tQtqxGiNEp" version="16.2.6" type="github">
  <diagram id="kclBJDpzdwjqmtEo5kUz" name="Page-1">
    <mxGraphModel dx="2182" dy="756" grid="1" gridSize="10" guides="1" tooltips="1" connect="1" arrows="1" fold="1" page="1" pageScale="1" pageWidth="827" pageHeight="1169" background="#F1FAEE" math="0" shadow="0">
      <root>
        <mxCell id="0" />
        <mxCell id="1" parent="0" />
        <mxCell id="F9dp1itUwrXdnvn_JDtq-36" value="" style="rounded=0;whiteSpace=wrap;html=1;sketch=0;fontSize=12;" vertex="1" parent="1">
          <mxGeometry x="20" y="490" width="180" height="160" as="geometry" />
        </mxCell>
        <mxCell id="F9dp1itUwrXdnvn_JDtq-27" value="" style="rounded=0;whiteSpace=wrap;html=1;" vertex="1" parent="1">
          <mxGeometry x="480" y="300" width="510" height="360" as="geometry" />
        </mxCell>
        <mxCell id="F9dp1itUwrXdnvn_JDtq-3" style="edgeStyle=orthogonalEdgeStyle;rounded=0;orthogonalLoop=1;jettySize=auto;html=1;entryX=0.5;entryY=0;entryDx=0;entryDy=0;" edge="1" parent="1" source="WK1I2I-N0BXQreemHK3c-6" target="F9dp1itUwrXdnvn_JDtq-1">
          <mxGeometry relative="1" as="geometry" />
        </mxCell>
        <mxCell id="F9dp1itUwrXdnvn_JDtq-4" style="edgeStyle=orthogonalEdgeStyle;rounded=0;orthogonalLoop=1;jettySize=auto;html=1;entryX=0.5;entryY=0;entryDx=0;entryDy=0;" edge="1" parent="1" source="WK1I2I-N0BXQreemHK3c-6" target="F9dp1itUwrXdnvn_JDtq-2">
          <mxGeometry relative="1" as="geometry" />
        </mxCell>
        <mxCell id="F9dp1itUwrXdnvn_JDtq-29" value="&lt;font style=&quot;font-size: 12px&quot;&gt;shopNo&lt;/font&gt;" style="edgeLabel;html=1;align=center;verticalAlign=middle;resizable=0;points=[];fontSize=18;" vertex="1" connectable="0" parent="F9dp1itUwrXdnvn_JDtq-4">
          <mxGeometry x="0.769" y="-1" relative="1" as="geometry">
            <mxPoint as="offset" />
          </mxGeometry>
        </mxCell>
        <mxCell id="F9dp1itUwrXdnvn_JDtq-6" style="edgeStyle=orthogonalEdgeStyle;rounded=0;orthogonalLoop=1;jettySize=auto;html=1;entryX=0.5;entryY=0;entryDx=0;entryDy=0;" edge="1" parent="1" source="WK1I2I-N0BXQreemHK3c-6" target="F9dp1itUwrXdnvn_JDtq-5">
          <mxGeometry relative="1" as="geometry" />
        </mxCell>
        <mxCell id="F9dp1itUwrXdnvn_JDtq-31" value="shopImgVO" style="edgeLabel;html=1;align=center;verticalAlign=middle;resizable=0;points=[];fontSize=12;" vertex="1" connectable="0" parent="F9dp1itUwrXdnvn_JDtq-6">
          <mxGeometry x="0.7501" relative="1" as="geometry">
            <mxPoint as="offset" />
          </mxGeometry>
        </mxCell>
        <mxCell id="F9dp1itUwrXdnvn_JDtq-10" style="edgeStyle=orthogonalEdgeStyle;rounded=0;orthogonalLoop=1;jettySize=auto;html=1;entryX=0.5;entryY=0;entryDx=0;entryDy=0;" edge="1" parent="1" source="WK1I2I-N0BXQreemHK3c-6" target="F9dp1itUwrXdnvn_JDtq-9">
          <mxGeometry relative="1" as="geometry" />
        </mxCell>
        <mxCell id="F9dp1itUwrXdnvn_JDtq-11" value="shopNo" style="edgeLabel;html=1;align=center;verticalAlign=middle;resizable=0;points=[];" vertex="1" connectable="0" parent="F9dp1itUwrXdnvn_JDtq-10">
          <mxGeometry x="0.7354" relative="1" as="geometry">
            <mxPoint x="9" y="18" as="offset" />
          </mxGeometry>
        </mxCell>
        <mxCell id="F9dp1itUwrXdnvn_JDtq-15" style="edgeStyle=orthogonalEdgeStyle;rounded=0;orthogonalLoop=1;jettySize=auto;html=1;entryX=0.5;entryY=0;entryDx=0;entryDy=0;" edge="1" parent="1" source="WK1I2I-N0BXQreemHK3c-6" target="F9dp1itUwrXdnvn_JDtq-14">
          <mxGeometry relative="1" as="geometry" />
        </mxCell>
        <mxCell id="F9dp1itUwrXdnvn_JDtq-16" value="shopImgNo" style="edgeLabel;html=1;align=center;verticalAlign=middle;resizable=0;points=[];" vertex="1" connectable="0" parent="F9dp1itUwrXdnvn_JDtq-15">
          <mxGeometry x="0.8571" y="1" relative="1" as="geometry">
            <mxPoint x="-1" y="2" as="offset" />
          </mxGeometry>
        </mxCell>
        <mxCell id="F9dp1itUwrXdnvn_JDtq-23" style="edgeStyle=orthogonalEdgeStyle;rounded=0;orthogonalLoop=1;jettySize=auto;html=1;" edge="1" parent="1">
          <mxGeometry relative="1" as="geometry">
            <mxPoint x="489" y="330.0344827586207" as="sourcePoint" />
            <mxPoint x="559.0344827586209" y="380" as="targetPoint" />
          </mxGeometry>
        </mxCell>
        <mxCell id="F9dp1itUwrXdnvn_JDtq-24" value="shopNo" style="edgeLabel;html=1;align=center;verticalAlign=middle;resizable=0;points=[];" vertex="1" connectable="0" parent="F9dp1itUwrXdnvn_JDtq-23">
          <mxGeometry x="0.4786" relative="1" as="geometry">
            <mxPoint x="-1" as="offset" />
          </mxGeometry>
        </mxCell>
        <mxCell id="WK1I2I-N0BXQreemHK3c-6" value="ShopController&lt;br&gt;/shop" style="rounded=1;whiteSpace=wrap;html=1;" parent="1" vertex="1">
          <mxGeometry x="350" y="300" width="120" height="60" as="geometry" />
        </mxCell>
        <mxCell id="F9dp1itUwrXdnvn_JDtq-1" value="상품게시판&lt;br&gt;/shop/list&lt;br&gt;[REQ]" style="rounded=1;whiteSpace=wrap;html=1;fillColor=#dae8fc;strokeColor=#6c8ebf;" vertex="1" parent="1">
          <mxGeometry x="191" y="380" width="120" height="60" as="geometry" />
        </mxCell>
        <mxCell id="F9dp1itUwrXdnvn_JDtq-33" style="edgeStyle=orthogonalEdgeStyle;rounded=0;orthogonalLoop=1;jettySize=auto;html=1;fontSize=12;" edge="1" parent="1" source="F9dp1itUwrXdnvn_JDtq-2" target="F9dp1itUwrXdnvn_JDtq-32">
          <mxGeometry relative="1" as="geometry" />
        </mxCell>
        <mxCell id="F9dp1itUwrXdnvn_JDtq-34" value="ShopListVO" style="edgeLabel;html=1;align=center;verticalAlign=middle;resizable=0;points=[];fontSize=12;" vertex="1" connectable="0" parent="F9dp1itUwrXdnvn_JDtq-33">
          <mxGeometry x="-0.2625" y="-2" relative="1" as="geometry">
            <mxPoint x="1" y="33" as="offset" />
          </mxGeometry>
        </mxCell>
        <mxCell id="F9dp1itUwrXdnvn_JDtq-2" value="상품게시판 상세&lt;br&gt;/shop/detail&lt;br&gt;[GET]" style="rounded=1;whiteSpace=wrap;html=1;fillColor=#dae8fc;strokeColor=#6c8ebf;" vertex="1" parent="1">
          <mxGeometry x="45" y="380" width="120" height="60" as="geometry" />
        </mxCell>
        <mxCell id="F9dp1itUwrXdnvn_JDtq-8" style="edgeStyle=orthogonalEdgeStyle;rounded=0;orthogonalLoop=1;jettySize=auto;html=1;entryX=0.5;entryY=0;entryDx=0;entryDy=0;" edge="1" parent="1" source="F9dp1itUwrXdnvn_JDtq-5" target="F9dp1itUwrXdnvn_JDtq-7">
          <mxGeometry relative="1" as="geometry" />
        </mxCell>
        <mxCell id="F9dp1itUwrXdnvn_JDtq-5" value="상품등록&lt;br&gt;/shop/write&lt;br&gt;[GET]" style="rounded=1;whiteSpace=wrap;html=1;fillColor=#dae8fc;strokeColor=#6c8ebf;" vertex="1" parent="1">
          <mxGeometry x="635" y="380" width="120" height="60" as="geometry" />
        </mxCell>
        <mxCell id="F9dp1itUwrXdnvn_JDtq-7" value="상품등록 요청&lt;br&gt;/shop/write&lt;br&gt;[POST]" style="rounded=1;whiteSpace=wrap;html=1;fillColor=#f8cecc;strokeColor=#b85450;" vertex="1" parent="1">
          <mxGeometry x="635" y="490" width="120" height="60" as="geometry" />
        </mxCell>
        <mxCell id="F9dp1itUwrXdnvn_JDtq-13" style="edgeStyle=orthogonalEdgeStyle;rounded=0;orthogonalLoop=1;jettySize=auto;html=1;entryX=0.5;entryY=0;entryDx=0;entryDy=0;" edge="1" parent="1" source="F9dp1itUwrXdnvn_JDtq-9" target="F9dp1itUwrXdnvn_JDtq-12">
          <mxGeometry relative="1" as="geometry" />
        </mxCell>
        <mxCell id="F9dp1itUwrXdnvn_JDtq-9" value="상품 수정&lt;br&gt;/shop/edit&lt;br&gt;[GET]" style="rounded=1;whiteSpace=wrap;html=1;fillColor=#dae8fc;strokeColor=#6c8ebf;" vertex="1" parent="1">
          <mxGeometry x="827" y="380" width="120" height="60" as="geometry" />
        </mxCell>
        <mxCell id="F9dp1itUwrXdnvn_JDtq-12" value="상품수정 요청&lt;br&gt;/shop/edit&lt;br&gt;[POST]" style="rounded=1;whiteSpace=wrap;html=1;fillColor=#f8cecc;strokeColor=#b85450;" vertex="1" parent="1">
          <mxGeometry x="827" y="490" width="120" height="60" as="geometry" />
        </mxCell>
        <mxCell id="F9dp1itUwrXdnvn_JDtq-14" value="이미지 다운로드&lt;br&gt;/shop/img&lt;br&gt;[GET]" style="rounded=1;whiteSpace=wrap;html=1;fillColor=#dae8fc;strokeColor=#6c8ebf;" vertex="1" parent="1">
          <mxGeometry x="-100" y="380" width="120" height="60" as="geometry" />
        </mxCell>
        <mxCell id="F9dp1itUwrXdnvn_JDtq-22" value="상품 및 이미지삭제&lt;br&gt;/shop/delete&lt;br&gt;[GET]" style="rounded=1;whiteSpace=wrap;html=1;fillColor=#dae8fc;strokeColor=#6c8ebf;" vertex="1" parent="1">
          <mxGeometry x="496" y="380" width="120" height="60" as="geometry" />
        </mxCell>
        <mxCell id="F9dp1itUwrXdnvn_JDtq-28" value="&lt;font style=&quot;font-size: 18px&quot;&gt;관리자 외 접근금지&lt;br&gt;AdminInterceptor&lt;/font&gt;" style="text;html=1;strokeColor=none;fillColor=none;align=center;verticalAlign=middle;whiteSpace=wrap;rounded=0;sketch=0;" vertex="1" parent="1">
          <mxGeometry x="480" y="590" width="190" height="60" as="geometry" />
        </mxCell>
        <mxCell id="F9dp1itUwrXdnvn_JDtq-32" value="구매페이지&lt;br&gt;/shop/order&lt;br&gt;[REQ]" style="rounded=1;whiteSpace=wrap;html=1;fillColor=#dae8fc;strokeColor=#6c8ebf;" vertex="1" parent="1">
          <mxGeometry x="45" y="522" width="120" height="60" as="geometry" />
        </mxCell>
      </root>
    </mxGraphModel>
  </diagram>
</mxfile>
